<mxfile host="app.diagrams.net" modified="2022-08-08T04:13:02.782Z" agent="5.0 (Windows NT 10.0; Win64; x64) AppleWebKit/537.36 (KHTML, like Gecko) Chrome/104.0.0.0 Safari/537.36" etag="T8SD0F5RNrQ2Gsi8ELO3" version="20.2.2" type="github">
  <diagram id="ftpVaE4ZrUkqRL97NRIl" name="Page-1">
    <mxGraphModel dx="823" dy="451" grid="1" gridSize="10" guides="1" tooltips="1" connect="1" arrows="1" fold="1" page="1" pageScale="1" pageWidth="827" pageHeight="1169" math="0" shadow="0">
      <root>
        <mxCell id="0" />
        <mxCell id="1" parent="0" />
        <mxCell id="LjXUgrngTykdXYTC6IcD-18" style="edgeStyle=orthogonalEdgeStyle;rounded=0;orthogonalLoop=1;jettySize=auto;html=1;exitX=0.5;exitY=1;exitDx=0;exitDy=0;entryX=0.5;entryY=0;entryDx=0;entryDy=0;" parent="1" source="LjXUgrngTykdXYTC6IcD-1" target="LjXUgrngTykdXYTC6IcD-4" edge="1">
          <mxGeometry relative="1" as="geometry" />
        </mxCell>
        <mxCell id="LjXUgrngTykdXYTC6IcD-1" value="Mulai" style="ellipse;whiteSpace=wrap;html=1;fontSize=18;fontFamily=Times New Roman;" parent="1" vertex="1">
          <mxGeometry x="180" y="50" width="140" height="50" as="geometry" />
        </mxCell>
        <mxCell id="LjXUgrngTykdXYTC6IcD-2" value="Selesai" style="ellipse;whiteSpace=wrap;html=1;fontSize=18;fontFamily=Times New Roman;" parent="1" vertex="1">
          <mxGeometry x="509.5" y="470" width="140" height="50" as="geometry" />
        </mxCell>
        <mxCell id="LjXUgrngTykdXYTC6IcD-19" style="edgeStyle=orthogonalEdgeStyle;rounded=0;orthogonalLoop=1;jettySize=auto;html=1;exitX=0.5;exitY=1;exitDx=0;exitDy=0;entryX=0.5;entryY=0;entryDx=0;entryDy=0;" parent="1" source="LjXUgrngTykdXYTC6IcD-4" target="LjXUgrngTykdXYTC6IcD-5" edge="1">
          <mxGeometry relative="1" as="geometry" />
        </mxCell>
        <mxCell id="LjXUgrngTykdXYTC6IcD-4" value="Install &amp;amp; Import Library" style="shape=parallelogram;perimeter=parallelogramPerimeter;whiteSpace=wrap;html=1;fixedSize=1;fontSize=18;fontFamily=Times New Roman;" parent="1" vertex="1">
          <mxGeometry x="124" y="120" width="250" height="40" as="geometry" />
        </mxCell>
        <mxCell id="LjXUgrngTykdXYTC6IcD-21" style="edgeStyle=orthogonalEdgeStyle;rounded=0;orthogonalLoop=1;jettySize=auto;html=1;entryX=0.5;entryY=0;entryDx=0;entryDy=0;" parent="1" source="LjXUgrngTykdXYTC6IcD-5" target="LjXUgrngTykdXYTC6IcD-7" edge="1">
          <mxGeometry relative="1" as="geometry" />
        </mxCell>
        <mxCell id="LjXUgrngTykdXYTC6IcD-5" value="Data Collecting &amp;amp; Cleaning" style="shape=parallelogram;perimeter=parallelogramPerimeter;whiteSpace=wrap;html=1;fixedSize=1;fontSize=18;fontFamily=Times New Roman;" parent="1" vertex="1">
          <mxGeometry x="124" y="180" width="250" height="40" as="geometry" />
        </mxCell>
        <mxCell id="LjXUgrngTykdXYTC6IcD-22" style="edgeStyle=orthogonalEdgeStyle;rounded=0;orthogonalLoop=1;jettySize=auto;html=1;exitX=0.5;exitY=1;exitDx=0;exitDy=0;entryX=0.5;entryY=0;entryDx=0;entryDy=0;" parent="1" source="LjXUgrngTykdXYTC6IcD-7" target="LjXUgrngTykdXYTC6IcD-8" edge="1">
          <mxGeometry relative="1" as="geometry" />
        </mxCell>
        <mxCell id="LjXUgrngTykdXYTC6IcD-7" value="Data Preprocessing &amp;amp; Transformation" style="rounded=0;whiteSpace=wrap;html=1;fontSize=18;fontFamily=Times New Roman;" parent="1" vertex="1">
          <mxGeometry x="130" y="240" width="239" height="50" as="geometry" />
        </mxCell>
        <mxCell id="LjXUgrngTykdXYTC6IcD-24" style="edgeStyle=orthogonalEdgeStyle;rounded=0;orthogonalLoop=1;jettySize=auto;html=1;exitX=0.5;exitY=1;exitDx=0;exitDy=0;entryX=0.5;entryY=0;entryDx=0;entryDy=0;" parent="1" source="LjXUgrngTykdXYTC6IcD-8" target="LjXUgrngTykdXYTC6IcD-11" edge="1">
          <mxGeometry relative="1" as="geometry">
            <mxPoint x="249" y="360" as="targetPoint" />
          </mxGeometry>
        </mxCell>
        <mxCell id="LjXUgrngTykdXYTC6IcD-8" value="Train Model" style="rounded=0;whiteSpace=wrap;html=1;fontSize=18;fontFamily=Times New Roman;" parent="1" vertex="1">
          <mxGeometry x="129" y="310" width="240" height="40" as="geometry" />
        </mxCell>
        <mxCell id="LjXUgrngTykdXYTC6IcD-26" style="edgeStyle=orthogonalEdgeStyle;rounded=0;orthogonalLoop=1;jettySize=auto;html=1;exitX=0.5;exitY=1;exitDx=0;exitDy=0;entryX=0.5;entryY=0;entryDx=0;entryDy=0;" parent="1" source="LjXUgrngTykdXYTC6IcD-11" target="LjXUgrngTykdXYTC6IcD-15" edge="1">
          <mxGeometry relative="1" as="geometry" />
        </mxCell>
        <mxCell id="LjXUgrngTykdXYTC6IcD-11" value="Test Model" style="rounded=0;whiteSpace=wrap;html=1;fontSize=18;fontFamily=Times New Roman;" parent="1" vertex="1">
          <mxGeometry x="130" y="370" width="240" height="40" as="geometry" />
        </mxCell>
        <mxCell id="LjXUgrngTykdXYTC6IcD-27" style="edgeStyle=orthogonalEdgeStyle;rounded=0;orthogonalLoop=1;jettySize=auto;html=1;exitX=0.5;exitY=1;exitDx=0;exitDy=0;entryX=0.5;entryY=0;entryDx=0;entryDy=0;" parent="1" source="LjXUgrngTykdXYTC6IcD-12" target="LjXUgrngTykdXYTC6IcD-14" edge="1">
          <mxGeometry relative="1" as="geometry" />
        </mxCell>
        <mxCell id="LjXUgrngTykdXYTC6IcD-12" value="Convert Model ke JSON dengan TensorFlow.js" style="rounded=0;whiteSpace=wrap;html=1;fontSize=18;fontFamily=Times New Roman;" parent="1" vertex="1">
          <mxGeometry x="130" y="530" width="240" height="50" as="geometry" />
        </mxCell>
        <mxCell id="zdqZg5oGNZ38o0WNF0NK-29" style="edgeStyle=orthogonalEdgeStyle;rounded=0;orthogonalLoop=1;jettySize=auto;html=1;exitX=1;exitY=0.5;exitDx=0;exitDy=0;entryX=0;entryY=0.5;entryDx=0;entryDy=0;" parent="1" source="LjXUgrngTykdXYTC6IcD-14" target="zdqZg5oGNZ38o0WNF0NK-7" edge="1">
          <mxGeometry relative="1" as="geometry">
            <Array as="points">
              <mxPoint x="424" y="610" />
              <mxPoint x="424" y="140" />
            </Array>
          </mxGeometry>
        </mxCell>
        <mxCell id="LjXUgrngTykdXYTC6IcD-14" value="Export Final Model" style="shape=parallelogram;perimeter=parallelogramPerimeter;whiteSpace=wrap;html=1;fixedSize=1;fontSize=18;fontFamily=Times New Roman;" parent="1" vertex="1">
          <mxGeometry x="150" y="600" width="200" height="40" as="geometry" />
        </mxCell>
        <mxCell id="LjXUgrngTykdXYTC6IcD-16" value="Tidak" style="edgeStyle=orthogonalEdgeStyle;rounded=0;orthogonalLoop=1;jettySize=auto;html=1;exitX=1;exitY=0.5;exitDx=0;exitDy=0;entryX=1;entryY=0.5;entryDx=0;entryDy=0;fontSize=16;fontFamily=Times New Roman;" parent="1" source="LjXUgrngTykdXYTC6IcD-15" target="LjXUgrngTykdXYTC6IcD-7" edge="1">
          <mxGeometry relative="1" as="geometry" />
        </mxCell>
        <mxCell id="LjXUgrngTykdXYTC6IcD-17" value="Ya" style="edgeStyle=orthogonalEdgeStyle;rounded=0;orthogonalLoop=1;jettySize=auto;html=1;exitX=0.5;exitY=1;exitDx=0;exitDy=0;entryX=0.5;entryY=0;entryDx=0;entryDy=0;fontSize=16;fontFamily=Times New Roman;" parent="1" source="LjXUgrngTykdXYTC6IcD-15" target="LjXUgrngTykdXYTC6IcD-12" edge="1">
          <mxGeometry relative="1" as="geometry" />
        </mxCell>
        <mxCell id="LjXUgrngTykdXYTC6IcD-15" value="Model Sudah Akurat?" style="rhombus;whiteSpace=wrap;html=1;fontSize=18;fontFamily=Times New Roman;" parent="1" vertex="1">
          <mxGeometry x="130" y="430" width="240" height="60" as="geometry" />
        </mxCell>
        <mxCell id="zdqZg5oGNZ38o0WNF0NK-18" style="edgeStyle=orthogonalEdgeStyle;rounded=0;orthogonalLoop=1;jettySize=auto;html=1;exitX=0.5;exitY=1;exitDx=0;exitDy=0;entryX=0.5;entryY=0;entryDx=0;entryDy=0;" parent="1" source="zdqZg5oGNZ38o0WNF0NK-7" target="zdqZg5oGNZ38o0WNF0NK-10" edge="1">
          <mxGeometry relative="1" as="geometry" />
        </mxCell>
        <mxCell id="zdqZg5oGNZ38o0WNF0NK-7" value="Import Final Model ke Web" style="shape=parallelogram;perimeter=parallelogramPerimeter;whiteSpace=wrap;html=1;fixedSize=1;fontSize=18;fontFamily=Times New Roman;" parent="1" vertex="1">
          <mxGeometry x="459" y="120" width="241" height="40" as="geometry" />
        </mxCell>
        <mxCell id="zdqZg5oGNZ38o0WNF0NK-19" style="edgeStyle=orthogonalEdgeStyle;rounded=0;orthogonalLoop=1;jettySize=auto;html=1;exitX=0.5;exitY=1;exitDx=0;exitDy=0;entryX=0.5;entryY=0;entryDx=0;entryDy=0;" parent="1" source="zdqZg5oGNZ38o0WNF0NK-10" target="zdqZg5oGNZ38o0WNF0NK-14" edge="1">
          <mxGeometry relative="1" as="geometry" />
        </mxCell>
        <mxCell id="zdqZg5oGNZ38o0WNF0NK-10" value="Membuat Image Predict TensorFlow.js" style="rounded=0;whiteSpace=wrap;html=1;fontSize=18;fontFamily=Times New Roman;" parent="1" vertex="1">
          <mxGeometry x="460" y="180" width="240" height="50" as="geometry" />
        </mxCell>
        <mxCell id="zdqZg5oGNZ38o0WNF0NK-28" style="edgeStyle=orthogonalEdgeStyle;rounded=0;orthogonalLoop=1;jettySize=auto;html=1;exitX=0.5;exitY=1;exitDx=0;exitDy=0;entryX=0.5;entryY=0;entryDx=0;entryDy=0;" parent="1" source="zdqZg5oGNZ38o0WNF0NK-12" target="LjXUgrngTykdXYTC6IcD-2" edge="1">
          <mxGeometry relative="1" as="geometry" />
        </mxCell>
        <mxCell id="zdqZg5oGNZ38o0WNF0NK-12" value="Deployment" style="shape=parallelogram;perimeter=parallelogramPerimeter;whiteSpace=wrap;html=1;fixedSize=1;fontSize=18;fontFamily=Times New Roman;" parent="1" vertex="1">
          <mxGeometry x="460" y="410" width="240" height="40" as="geometry" />
        </mxCell>
        <mxCell id="zdqZg5oGNZ38o0WNF0NK-20" style="edgeStyle=orthogonalEdgeStyle;rounded=0;orthogonalLoop=1;jettySize=auto;html=1;exitX=0.5;exitY=1;exitDx=0;exitDy=0;entryX=0.5;entryY=0;entryDx=0;entryDy=0;" parent="1" source="zdqZg5oGNZ38o0WNF0NK-14" target="zdqZg5oGNZ38o0WNF0NK-15" edge="1">
          <mxGeometry relative="1" as="geometry" />
        </mxCell>
        <mxCell id="zdqZg5oGNZ38o0WNF0NK-14" value="Test Images" style="rounded=0;whiteSpace=wrap;html=1;fontSize=18;fontFamily=Times New Roman;" parent="1" vertex="1">
          <mxGeometry x="460" y="250" width="240" height="40" as="geometry" />
        </mxCell>
        <mxCell id="zdqZg5oGNZ38o0WNF0NK-23" value="Ya" style="edgeStyle=orthogonalEdgeStyle;rounded=0;orthogonalLoop=1;jettySize=auto;html=1;exitX=0.5;exitY=1;exitDx=0;exitDy=0;fontSize=16;fontFamily=Times New Roman;" parent="1" source="zdqZg5oGNZ38o0WNF0NK-15" target="zdqZg5oGNZ38o0WNF0NK-12" edge="1">
          <mxGeometry relative="1" as="geometry" />
        </mxCell>
        <mxCell id="zdqZg5oGNZ38o0WNF0NK-27" value="Tidak" style="edgeStyle=orthogonalEdgeStyle;rounded=0;orthogonalLoop=1;jettySize=auto;html=1;exitX=1;exitY=0.5;exitDx=0;exitDy=0;entryX=1;entryY=0.5;entryDx=0;entryDy=0;fontSize=16;fontFamily=Times New Roman;" parent="1" source="zdqZg5oGNZ38o0WNF0NK-15" target="zdqZg5oGNZ38o0WNF0NK-10" edge="1">
          <mxGeometry relative="1" as="geometry" />
        </mxCell>
        <mxCell id="zdqZg5oGNZ38o0WNF0NK-15" value="Hasilnya Sudah Sesuai?" style="rhombus;whiteSpace=wrap;html=1;fontSize=18;fontFamily=Times New Roman;" parent="1" vertex="1">
          <mxGeometry x="460" y="310" width="240" height="60" as="geometry" />
        </mxCell>
      </root>
    </mxGraphModel>
  </diagram>
</mxfile>
